<svg height="466pt" viewBox="-1 0 466 466.79352" width="466pt" xmlns="http://www.w3.org/2000/svg"><path d="m385.730469 21.273438c-8.839844-13.1875-23.625-21.148438-39.496094-21.273438-15.875-.121094-30.78125 7.609375-39.824219 20.65625l-79.039062 114.023438c-1.855469 2.675781-2.847656 5.855468-2.847656 9.113281v291c0 17.671875 14.324218 32 32 32h176c17.671874 0 32-14.328125 32-32v-291.136719c-.003907-3.171875-.945313-6.269531-2.714844-8.902344zm0 0" fill="#d80027"/><path d="m464.523438 242.792969v192c0 17.671875-14.328126 32-32 32h-176c-1.472657.015625-2.945313-.09375-4.402344-.320313 119.085937-6.066406 212.5-104.441406 212.402344-223.679687zm0 0" fill="#bd0022"/><path d="m368.523438 74.792969c0 13.253906-10.746094 24-24 24-13.257813 0-24-10.746094-24-24 0-13.253907 10.742187-24 24-24 13.253906 0 24 10.746093 24 24zm0 0" fill="#f1f2f2"/><path d="m302.523438 430.472656c2.757812 1.59375 6.035156 2.023438 9.109374 1.199219 3.078126-.824219 5.699219-2.839844 7.289063-5.601563l76-131.597656c3.3125-5.746094 1.34375-13.085937-4.398437-16.402344-5.746094-3.3125-13.085938-1.34375-16.402344 4.402344l-76 131.597656c-1.59375 2.757813-2.023438 6.039063-1.199219 9.113282.828125 3.078125 2.839844 5.699218 5.601563 7.289062zm0 0" fill="#ffcd00"/><path d="m320.523438 314.792969c0 13.253906-10.746094 24-24 24-13.257813 0-24-10.746094-24-24 0-13.253907 10.742187-24 24-24 13.253906 0 24 10.746093 24 24zm0 0" fill="#ffcd00"/><path d="m115.722656 180.105469c-3.769531-3.804688-5.382812-9.246094-4.304687-14.488281 3.75-18.941407-2.515625-38.476563-16.574219-51.707032-21.84375-20.003906-55.40625-19.832031-77.042969.402344-17.957031 17.191406-22.429687 44.167969-10.984375 66.238281 11.449219 22.066407 36.074219 33.949219 60.472656 29.167969 5.261719-1.085938 10.714844.527344 14.539063 4.296875l16.796875 16.800781 33.921875-33.921875zm-36.609375-2.691407c-12.496093 12.5-32.757812 12.503907-45.257812.007813-12.496094-12.5-12.496094-32.761719 0-45.257813 12.5-12.496093 32.761719-12.496093 45.257812.003907 12.503907 12.488281 12.515625 32.742187.03125 45.246093zm0 0" fill="#9cdd05"/><path d="m166.449219 230.792969-33.917969 33.917969 23.03125 23.121093c15.234375 15.214844 33.308594 27.28125 53.199219 35.519531 5.136719 2.160157 10.398437 4.003907 15.761719 5.519532v-40zm0 0" fill="#9cdd05"/><path d="m166.441406 230.792969 58.082032-58.058594 52.214843-52.214844-27.953125 5.601563c-37.132812 7.449218-71.238281 25.707031-98.023437 52.488281l-18.238281 18.253906-33.921876 33.929688-23.679687 23.679687c-20.960937-7.53125-44.390625-1.871094-59.597656 14.398438-20.039063 21.828125-19.882813 55.398437.351562 77.039062 18.273438 19.035156 47.359375 22.730469 69.8125 8.867188 22.453125-13.863282 32.183594-41.519532 23.355469-66.386719l23.679688-23.671875zm-87.277344 98.640625c-12.503906 12.484375-32.757812 12.476562-45.25-.019532-12.488281-12.496093-12.488281-32.75 0-45.246093 12.492188-12.496094 32.746094-12.503907 45.25-.015625 12.476563 12.515625 12.476563 32.765625 0 45.28125zm0 0" fill="#b2fa09"/><path d="m132.523438 196.871094-.007813-.007813-33.921875 33.921875.007812.007813zm0 0" fill="#9bc9ff"/><path d="m166.441406 230.792969-33.917968 33.917969.007812.007812 33.917969-33.917969zm0 0" fill="#9bc9ff"/><path d="m414.121094 384.449219c-4.546875-9.480469-14.746094-14.886719-25.144532-13.324219-10.398437 1.5625-18.558593 9.722656-20.121093 20.121094-1.5625 10.398437 3.84375 20.597656 13.324219 25.144531 11.691406-9.550781 22.390624-20.25 31.941406-31.941406zm0 0" fill="#ffcd00"/><path d="m382.179688 416.390625c9.164062 4.53125 20.195312 2.710937 27.425781-4.515625 7.226562-7.230469 9.042969-18.261719 4.515625-27.425781-9.550782 11.691406-20.25 22.390625-31.941406 31.941406zm0 0" fill="#dfb300"/><g fill="#f1f2f2"><path d="m240.523438 226.792969h16v16h-16zm0 0"/><path d="m264.523438 226.792969h16v16h-16zm0 0"/><path d="m288.523438 226.792969h16v16h-16zm0 0"/><path d="m312.523438 226.792969h16v16h-16zm0 0"/><path d="m336.523438 226.792969h16v16h-16zm0 0"/><path d="m360.523438 226.792969h16v16h-16zm0 0"/><path d="m384.523438 226.792969h16v16h-16zm0 0"/><path d="m408.523438 226.792969h16v16h-16zm0 0"/><path d="m432.523438 226.792969h16v16h-16zm0 0"/></g><path d="m288.523438 130.792969h16v16h-16zm0 0" fill="#ffcd00"/><path d="m320.523438 130.792969h80v16h-80zm0 0" fill="#ffcd00"/><path d="m288.523438 154.792969h112v16h-112zm0 0" fill="#ffcd00"/><path d="m288.523438 178.792969h80v16h-80zm0 0" fill="#ffcd00"/><path d="m384.523438 178.792969h16v16h-16zm0 0" fill="#ffcd00"/></svg>